<?xml version="1.0" standalone="no"?><svg xmlns="http://www.w3.org/2000/svg" viewBox="0 0 1440 320"><path fill="#ff5500" fill-opacity="0.8" d="M0,64L20,90.7C40,117,80,171,120,213.3C160,256,200,288,240,272C280,256,320,192,360,144C400,96,440,64,480,90.7C520,117,560,203,600,240C640,277,680,267,720,256C760,245,800,235,840,240C880,245,920,267,960,256C1000,245,1040,203,1080,202.7C1120,203,1160,245,1200,240C1240,235,1280,181,1320,176C1360,171,1400,213,1420,234.7L1440,256L1440,320L1420,320C1400,320,1360,320,1320,320C1280,320,1240,320,1200,320C1160,320,1120,320,1080,320C1040,320,1000,320,960,320C920,320,880,320,840,320C800,320,760,320,720,320C680,320,640,320,600,320C560,320,520,320,480,320C440,320,400,320,360,320C320,320,280,320,240,320C200,320,160,320,120,320C80,320,40,320,20,320L0,320Z"></path></svg>